<mxfile host="app.diagrams.net" modified="2023-11-26T16:27:46.171Z" agent="Mozilla/5.0 (Windows NT 10.0; Win64; x64) AppleWebKit/537.36 (KHTML, like Gecko) Chrome/119.0.0.0 Safari/537.36" etag="xy3aON-y7WbW7WGIRm20" version="22.1.4" type="github">
  <diagram name="Страница — 1" id="ay8QH4Z7-sj2TVPwFqcw">
    <mxGraphModel dx="1050" dy="565" grid="1" gridSize="10" guides="1" tooltips="1" connect="1" arrows="1" fold="1" page="1" pageScale="1" pageWidth="827" pageHeight="1169" math="0" shadow="0">
      <root>
        <mxCell id="0" />
        <mxCell id="1" parent="0" />
        <mxCell id="EmwqOqsvQd_sTssaOZNv-5" value="" style="edgeStyle=orthogonalEdgeStyle;rounded=0;orthogonalLoop=1;jettySize=auto;html=1;" edge="1" parent="1" source="EmwqOqsvQd_sTssaOZNv-1" target="EmwqOqsvQd_sTssaOZNv-2">
          <mxGeometry relative="1" as="geometry" />
        </mxCell>
        <mxCell id="EmwqOqsvQd_sTssaOZNv-1" value="Beginning" style="ellipse;whiteSpace=wrap;html=1;" vertex="1" parent="1">
          <mxGeometry x="330" y="40" width="120" height="40" as="geometry" />
        </mxCell>
        <mxCell id="EmwqOqsvQd_sTssaOZNv-6" value="" style="edgeStyle=orthogonalEdgeStyle;rounded=0;orthogonalLoop=1;jettySize=auto;html=1;" edge="1" parent="1" source="EmwqOqsvQd_sTssaOZNv-2" target="EmwqOqsvQd_sTssaOZNv-3">
          <mxGeometry relative="1" as="geometry" />
        </mxCell>
        <mxCell id="EmwqOqsvQd_sTssaOZNv-2" value="n=10;&lt;br&gt;k=(0.8-0.1)/n&lt;br&gt;sum_a=x_a=0" style="rounded=0;whiteSpace=wrap;html=1;" vertex="1" parent="1">
          <mxGeometry x="330" y="110" width="120" height="60" as="geometry" />
        </mxCell>
        <mxCell id="EmwqOqsvQd_sTssaOZNv-7" value="" style="edgeStyle=orthogonalEdgeStyle;rounded=0;orthogonalLoop=1;jettySize=auto;html=1;" edge="1" parent="1" source="EmwqOqsvQd_sTssaOZNv-3" target="EmwqOqsvQd_sTssaOZNv-4">
          <mxGeometry relative="1" as="geometry" />
        </mxCell>
        <mxCell id="EmwqOqsvQd_sTssaOZNv-16" value="" style="edgeStyle=orthogonalEdgeStyle;rounded=0;orthogonalLoop=1;jettySize=auto;html=1;" edge="1" parent="1" source="EmwqOqsvQd_sTssaOZNv-3" target="EmwqOqsvQd_sTssaOZNv-11">
          <mxGeometry relative="1" as="geometry" />
        </mxCell>
        <mxCell id="EmwqOqsvQd_sTssaOZNv-3" value="for(int i=1; i&amp;lt;=n; i++)" style="shape=hexagon;perimeter=hexagonPerimeter2;whiteSpace=wrap;html=1;fixedSize=1;" vertex="1" parent="1">
          <mxGeometry x="330" y="200" width="120" height="80" as="geometry" />
        </mxCell>
        <mxCell id="EmwqOqsvQd_sTssaOZNv-4" value="x_a=x_a+k;&lt;br&gt;sum_a=sum_a+-1^(i+1)*&lt;br&gt;(x_a^2i/2i*(2i-1))" style="rounded=0;whiteSpace=wrap;html=1;" vertex="1" parent="1">
          <mxGeometry x="330" y="300" width="120" height="60" as="geometry" />
        </mxCell>
        <mxCell id="EmwqOqsvQd_sTssaOZNv-8" value="" style="endArrow=none;html=1;rounded=0;exitX=0;exitY=0.5;exitDx=0;exitDy=0;" edge="1" parent="1" source="EmwqOqsvQd_sTssaOZNv-4">
          <mxGeometry width="50" height="50" relative="1" as="geometry">
            <mxPoint x="390" y="250" as="sourcePoint" />
            <mxPoint x="310" y="330" as="targetPoint" />
          </mxGeometry>
        </mxCell>
        <mxCell id="EmwqOqsvQd_sTssaOZNv-9" value="" style="endArrow=none;html=1;rounded=0;" edge="1" parent="1">
          <mxGeometry width="50" height="50" relative="1" as="geometry">
            <mxPoint x="310" y="330" as="sourcePoint" />
            <mxPoint x="310" y="240" as="targetPoint" />
          </mxGeometry>
        </mxCell>
        <mxCell id="EmwqOqsvQd_sTssaOZNv-10" value="" style="endArrow=classic;html=1;rounded=0;entryX=0;entryY=0.5;entryDx=0;entryDy=0;" edge="1" parent="1" target="EmwqOqsvQd_sTssaOZNv-3">
          <mxGeometry width="50" height="50" relative="1" as="geometry">
            <mxPoint x="310" y="240" as="sourcePoint" />
            <mxPoint x="440" y="200" as="targetPoint" />
          </mxGeometry>
        </mxCell>
        <mxCell id="EmwqOqsvQd_sTssaOZNv-17" value="" style="edgeStyle=orthogonalEdgeStyle;rounded=0;orthogonalLoop=1;jettySize=auto;html=1;" edge="1" parent="1" source="EmwqOqsvQd_sTssaOZNv-11" target="EmwqOqsvQd_sTssaOZNv-15">
          <mxGeometry relative="1" as="geometry" />
        </mxCell>
        <mxCell id="EmwqOqsvQd_sTssaOZNv-11" value="Output sum_a" style="shape=parallelogram;perimeter=parallelogramPerimeter;whiteSpace=wrap;html=1;fixedSize=1;" vertex="1" parent="1">
          <mxGeometry x="470" y="210" width="120" height="60" as="geometry" />
        </mxCell>
        <mxCell id="EmwqOqsvQd_sTssaOZNv-19" value="" style="edgeStyle=orthogonalEdgeStyle;rounded=0;orthogonalLoop=1;jettySize=auto;html=1;" edge="1" parent="1" source="EmwqOqsvQd_sTssaOZNv-15" target="EmwqOqsvQd_sTssaOZNv-18">
          <mxGeometry relative="1" as="geometry" />
        </mxCell>
        <mxCell id="EmwqOqsvQd_sTssaOZNv-15" value="Output round&lt;br&gt;(sum_a*10000)/&lt;br&gt;10000" style="shape=parallelogram;perimeter=parallelogramPerimeter;whiteSpace=wrap;html=1;fixedSize=1;" vertex="1" parent="1">
          <mxGeometry x="470" y="300" width="120" height="60" as="geometry" />
        </mxCell>
        <mxCell id="EmwqOqsvQd_sTssaOZNv-18" value="End" style="ellipse;whiteSpace=wrap;html=1;" vertex="1" parent="1">
          <mxGeometry x="470" y="380" width="120" height="40" as="geometry" />
        </mxCell>
      </root>
    </mxGraphModel>
  </diagram>
</mxfile>
